<svg width="24" height="24" viewBox="0 0 24 24" fill="none" xmlns="http://www.w3.org/2000/svg">
<path d="M23.4984 3.279C23.2224 1.989 22.4088 0.972 21.3768 0.627C19.5048 3.12924e-07 12 0 12 0C12 0 4.4952 3.12924e-07 2.6232 0.627C1.5912 0.972 0.7776 1.989 0.5016 3.279C-3.57628e-08 5.619 0 12 0 12C0 12 -3.57628e-08 18.381 0.5016 20.721C0.7776 22.011 1.5912 23.028 2.6232 23.373C4.4952 24 12 24 12 24C12 24 19.5048 24 21.3768 23.373C22.41 23.028 23.2224 22.011 23.4984 20.721C24 18.381 24 12 24 12C24 12 24 5.619 23.4984 3.279ZM9.6 15.897V8.103C9.6 7.5255 10.1004 7.1655 10.5 7.4535L15.9 11.3505C16.2996 11.6385 16.2996 12.3615 15.9 12.6495L10.5 16.5465C10.1004 16.836 9.6 16.4745 9.6 15.897Z" fill="white"/>
</svg>
